<svg width="22" height="20" viewBox="0 0 22 20" fill="none" xmlns="http://www.w3.org/2000/svg">
<path d="M19.84 2.60987C19.3292 2.09888 18.7228 1.69352 18.0554 1.41696C17.3879 1.14039 16.6725 0.998047 15.95 0.998047C15.2275 0.998047 14.5121 1.14039 13.8446 1.41696C13.1772 1.69352 12.5708 2.09888 12.06 2.60987L11 3.66987L9.94 2.60987C8.9083 1.57818 7.50903 0.998582 6.05 0.998582C4.59096 0.998582 3.19169 1.57818 2.16 2.60987C1.1283 3.64156 0.548706 5.04084 0.548706 6.49987C0.548706 7.95891 1.1283 9.35818 2.16 10.3899L3.22 11.4499L11 19.2299L18.78 11.4499L19.84 10.3899C20.351 9.87912 20.7563 9.27269 21.0329 8.60523C21.3095 7.93777 21.4518 7.22236 21.4518 6.49987C21.4518 5.77738 21.3095 5.06198 21.0329 4.39452C20.7563 3.72706 20.351 3.12063 19.84 2.60987Z" fill="url(#paint0_linear)"/>
<defs>
<linearGradient id="paint0_linear" x1="11.0003" y1="0.998047" x2="11.0003" y2="19.2299" gradientUnits="userSpaceOnUse">
<stop stop-color="#00146F"/>
<stop offset="1" stop-color="#0B0040"/>
</linearGradient>
</defs>
</svg>
