<svg width="91" height="48" viewBox="0 0 91 48" fill="none" xmlns="http://www.w3.org/2000/svg">
<path fill-rule="evenodd" clip-rule="evenodd" d="M27.3799 37.4563C23.9793 38.2785 20.3167 37.8037 17.1664 35.9914C10.5515 32.1873 8.28057 23.7396 12.1004 17.162C15.9261 10.5786 24.4219 8.32049 31.0368 12.1246L37.0636 15.5871L34.5539 19.9065L54.9226 19.9644L44.7033 2.44932L42.2635 6.64715L36.2367 3.18467C33.4242 1.56923 30.3671 0.555958 27.1587 0.173811C24.0608 -0.196756 20.9514 0.0348485 17.9118 0.857044C14.878 1.67345 12.0713 3.03991 9.57327 4.9217C6.98787 6.86718 4.85665 9.27007 3.22622 12.0667C-3.4178 23.5079 0.530179 38.1975 12.0364 44.8098C16.0077 47.0911 20.5205 48.1854 25.0915 47.9712C26.326 47.9133 27.5488 47.7569 28.7542 47.5195L27.3799 37.4563Z" fill="white"/>
<path fill-rule="evenodd" clip-rule="evenodd" d="M78.8901 3.69935C78.8959 3.69935 78.9076 3.69356 78.9134 3.69356C78.401 3.36931 77.8769 3.06823 77.3354 2.77872C67.6518 -2.34552 55.9709 -0.104752 48.7853 7.5903L53.9328 16.4086C55.3362 14.0868 57.3102 12.2919 59.5753 11.1049C63.8086 8.97993 68.9852 8.87571 73.2826 11.3481C80.1362 15.2854 82.5702 23.9531 78.6106 30.7623C74.651 37.5715 65.8874 39.8007 59.0338 35.8634L52.6867 32.2156L55.0625 28.1278L36.1145 28.1394L45.5594 44.4675L47.9352 40.3797L54.2822 44.0275C65.7418 50.6108 80.2818 46.7488 86.8268 35.4813C93.2088 24.5148 89.6743 10.5027 78.8901 3.69935Z" fill="#C80050"/>
<path fill-rule="evenodd" clip-rule="evenodd" d="M51.7958 21.2434L42.2403 21.2144C42.083 23.2178 42.1878 25.2212 42.543 27.1782L52.3024 27.1724C51.7317 25.2559 51.5454 23.2352 51.7958 21.2434Z" fill="#C80050"/>
</svg>
