<svg width="438" height="35" viewBox="0 0 438 35" fill="none" xmlns="http://www.w3.org/2000/svg">
<path d="M16.49 8.21986C21.1301 8.21986 24.7605 9.29573 27.2743 11.4169C29.783 13.533 31.0067 16.4496 31.0067 20.3299C31.0067 22.9456 30.4764 25.2198 29.4312 27.1013C28.3961 28.9675 26.8613 30.4411 24.8778 31.4813L24.1384 31.8688L24.5871 32.5725L31.4809 43.3822H22.5017L17.3772 33.6381L17.1631 33.2302H16.6991H16.49H9.58093H8.81609V33.9951V43.3822H0.764843V8.21986H16.49ZM8.81609 27.1166H9.58093H16.541C18.6826 27.1166 20.3805 26.5557 21.5839 25.4492C22.8076 24.3274 23.4297 22.7111 23.4297 20.646C23.4297 18.6472 22.8076 17.0767 21.5788 15.9703C20.3754 14.8842 18.6775 14.3335 16.541 14.3335H9.58093H8.81609V15.0983V26.3517V27.1166ZM16.49 7.45502H0V44.1471H9.58093V33.9951H16.49H16.6991L22.0377 44.1471H32.8729L25.2296 32.1594C27.3559 31.0428 28.9824 29.4825 30.0991 27.4735C31.2158 25.4696 31.7716 23.0833 31.7716 20.3299C31.7716 16.2456 30.4357 13.0792 27.7689 10.8305C25.1021 8.58188 21.3391 7.45502 16.49 7.45502ZM9.58093 26.3517V15.0983H16.541C18.4939 15.0983 20.0032 15.5776 21.0689 16.5363C22.1346 17.4949 22.6648 18.8665 22.6648 20.646C22.6648 22.4969 22.1346 23.9093 21.0689 24.8832C20.0032 25.8622 18.4939 26.3466 16.541 26.3466H9.58093V26.3517Z" fill="#00146F"/>
<path d="M71.3089 8.21986V14.3335H52.7079H51.943V15.0983V21.9564V22.7213H52.7079H69.4223V28.7839L52.7028 28.8349H51.9379V29.5998V36.5088V37.2737H52.7028H71.829V43.3873H43.8918V8.22495H71.3089V8.21986ZM72.0737 7.45502H43.127V44.1471H72.5938V36.5037H52.7028V29.5947L70.182 29.5437V21.9564H52.7028V15.0983H72.0686V7.45502H72.0737Z" fill="#00146F"/>
<path d="M180.748 8.21986C185.388 8.21986 189.018 9.29573 191.532 11.4169C194.046 13.533 195.264 16.4496 195.264 20.3299C195.264 22.9405 194.734 25.2198 193.689 27.1013C192.649 28.9675 191.119 30.4411 189.135 31.4813L188.396 31.8688L188.845 32.5725L195.739 43.3822H186.759L181.635 33.6381L181.421 33.2302H180.957H180.748H173.839H173.074V33.9951V43.3822H165.028V8.21986H180.748ZM173.074 27.1166H173.839H180.799C182.94 27.1166 184.638 26.5557 185.842 25.4492C187.065 24.3274 187.687 22.7111 187.687 20.646C187.687 18.6523 187.065 17.0767 185.836 15.9703C184.633 14.8842 182.935 14.3335 180.799 14.3335H173.839H173.074V15.0983V26.3517V27.1166ZM180.748 7.45502H164.263V44.1471H173.839V33.9951H180.748H180.957L186.295 44.1471H197.131L189.487 32.1594C191.614 31.0428 193.235 29.4825 194.357 27.4735C195.473 25.4696 196.029 23.0833 196.029 20.3299C196.029 16.2456 194.693 13.0792 192.027 10.8305C189.355 8.58188 185.597 7.45502 180.748 7.45502ZM173.839 26.3517V15.0983H180.799C182.752 15.0983 184.261 15.5776 185.327 16.5363C186.392 17.4949 186.922 18.8665 186.922 20.646C186.922 22.4969 186.387 23.9093 185.327 24.8832C184.261 25.8622 182.752 26.3466 180.799 26.3466H173.839V26.3517Z" fill="#00146F"/>
<path d="M223.875 8.21986C228.515 8.21986 232.145 9.29573 234.659 11.4169C237.173 13.533 238.391 16.4496 238.391 20.3299C238.391 22.9405 237.861 25.2198 236.816 27.1013C235.776 28.9675 234.246 30.4411 232.262 31.4813L231.523 31.8688L231.972 32.5725L238.866 43.3822H229.886L224.762 33.6381L224.548 33.2302H224.084H223.875H216.966H216.201V33.9951V43.3822H208.155V8.21986H223.875ZM216.201 27.1166H216.966H223.926C226.067 27.1166 227.765 26.5557 228.968 25.4492C230.192 24.3274 230.814 22.7111 230.814 20.646C230.814 18.6523 230.192 17.0767 228.963 15.9703C227.76 14.8842 226.062 14.3335 223.926 14.3335H216.966H216.201V15.0983V26.3517V27.1166ZM223.875 7.45502H207.39V44.1471H216.966V33.9951H223.875H224.084L229.422 44.1471H240.258L232.614 32.1594C234.74 31.0428 236.362 29.4825 237.484 27.4735C238.6 25.4696 239.156 23.0833 239.156 20.3299C239.156 16.2456 237.82 13.0792 235.153 10.8305C232.487 8.58188 228.724 7.45502 223.875 7.45502ZM216.966 26.3517V15.0983H223.926C225.879 15.0983 227.388 15.5776 228.453 16.5363C229.519 17.4949 230.049 18.8665 230.049 20.646C230.049 22.4969 229.514 23.9093 228.453 24.8832C227.388 25.8622 225.879 26.3466 223.926 26.3466H216.966V26.3517Z" fill="#00146F"/>
<path d="M269.092 1.43315L272.886 4.46703H268.368H265.278H262.137H257.619L261.413 1.43315H269.092ZM278.699 8.21987V14.3335H260.098H259.333V15.0984V21.9564V22.7213H260.098H276.812V28.7839L260.092 28.8349H259.328V29.5998V36.5089V37.2737H260.092H279.219V43.3873H251.281V8.22496H278.699V8.21987ZM269.362 0.668304H261.143L255.437 5.23187H262.137H265.278H268.368H275.068L269.362 0.668304ZM279.463 7.45503H250.517V44.1471H279.983V36.5037H260.092V29.5947L277.572 29.5437V21.9564H260.092V15.0984H279.458V7.45503H279.463Z" fill="#00146F"/>
<path d="M324.283 8.21986V43.3822H317.053L300.639 21.7525L299.268 19.9423V22.2165V43.3822H291.849V8.21986H299.13L315.6 30.0026L316.981 31.828L316.976 29.5386L316.925 8.21476H324.283V8.21986ZM325.048 7.45502H316.15L316.201 29.5437L299.502 7.45502H291.074V44.1471H300.022V22.2165L316.665 44.1471H325.038V7.45502H325.048Z" fill="#00146F"/>
<path d="M354.729 7.64369C357.329 7.64369 359.94 8.19437 362.49 9.28555C364.81 10.2798 366.834 11.6107 368.511 13.2576L363.989 18.7186C362.867 17.4694 361.572 16.4394 360.119 15.6541C358.37 14.7057 356.61 14.2264 354.887 14.2264C352.904 14.2264 351.073 14.7312 349.436 15.7255C347.805 16.7198 346.509 18.1016 345.576 19.8353C344.648 21.5638 344.174 23.5065 344.174 25.6175C344.174 27.7285 344.643 29.6711 345.576 31.3946C346.509 33.1333 347.805 34.5152 349.436 35.5094C351.068 36.5037 352.904 37.0085 354.887 37.0085C356.493 37.0085 358.186 36.5955 359.925 35.7848C361.404 35.0913 362.76 34.1735 363.968 33.0466L368.537 37.9569C366.727 39.7365 364.595 41.1846 362.189 42.2707C359.563 43.4587 356.927 44.0604 354.367 44.0604C350.889 44.0604 347.708 43.2497 344.908 41.6486C342.109 40.0475 339.881 37.8346 338.28 35.0709C336.679 32.3073 335.868 29.1561 335.868 25.7195C335.868 22.3185 336.694 19.2081 338.326 16.4802C339.957 13.7522 342.226 11.575 345.077 10.0045C347.927 8.43913 351.175 7.64369 354.729 7.64369ZM354.729 6.87885C351.032 6.87885 347.687 7.69976 344.704 9.33653C341.722 10.9784 339.376 13.227 337.663 16.0875C335.955 18.9481 335.098 22.1604 335.098 25.7195C335.098 29.3142 335.934 32.5571 337.612 35.4534C339.289 38.3496 341.589 40.6339 344.521 42.3114C347.453 43.9839 350.731 44.8252 354.362 44.8252C357.049 44.8252 359.762 44.2032 362.5 42.9641C365.238 41.7251 367.604 40.0577 369.592 37.9671L363.989 31.9504C362.699 33.2761 361.23 34.3214 359.593 35.0913C357.952 35.8613 356.381 36.2437 354.882 36.2437C353.031 36.2437 351.348 35.7797 349.829 34.8568C348.309 33.9339 347.116 32.6591 346.244 31.0377C345.372 29.4162 344.934 27.6112 344.934 25.6226C344.934 23.634 345.367 21.829 346.244 20.2024C347.116 18.5809 348.309 17.3062 349.829 16.3833C351.348 15.4604 353.031 14.9964 354.882 14.9964C356.488 14.9964 358.11 15.44 359.751 16.3323C361.393 17.2195 362.806 18.4178 363.989 19.9168L369.536 13.2168C367.685 11.2639 365.437 9.71895 362.785 8.58698C360.134 7.44482 357.447 6.87885 354.729 6.87885Z" fill="#00146F"/>
<path d="M387.719 8.21986V43.3822H379.673V8.21986H387.719ZM388.484 7.45502H378.908V44.1471H388.484V7.45502Z" fill="#00146F"/>
<path d="M422.101 8.21986L436.848 43.3822H428.317L425.992 37.3808L425.803 36.8913H425.278H409.42H408.9L408.712 37.3757L406.341 43.3822H398.182L413.28 8.21986H422.101ZM411.18 31.0938H412.301H422.458H423.57L423.172 30.0536L418.15 16.9697L417.441 15.1289L416.722 16.9646L411.593 30.0485L411.18 31.0938ZM422.611 7.45502H412.77L397.015 44.1471H406.856L409.42 37.6561H425.278L427.792 44.1471H438L422.611 7.45502ZM412.301 30.3289L417.431 17.245L422.458 30.3289H412.301Z" fill="#00146F"/>
<path d="M99.6488 5.98143C100.454 5.98143 101.27 6.03242 102.071 6.1242C104.778 6.45053 107.358 7.30716 109.729 8.67878L115.007 11.7279L115.67 12.1104L116.052 11.4475L117.526 8.89803L125.144 22.0278L109.959 21.9819L111.499 19.3203L111.881 18.6574L111.218 18.275L105.941 15.2258C103.983 14.0939 101.76 13.4973 99.5061 13.4973C94.9017 13.4973 90.6084 15.9652 88.3139 19.9424C84.7548 26.1019 86.8658 34.0104 93.0253 37.5694C94.9884 38.7065 97.2217 39.3031 99.4857 39.3031C100.23 39.3031 100.975 39.2368 101.704 39.1093L102.703 46.4365C101.908 46.5691 101.107 46.6558 100.317 46.6915C100.001 46.7068 99.6845 46.7119 99.3684 46.7119C95.845 46.7119 92.3624 45.7787 89.3031 44.0094C84.6069 41.2968 81.2467 36.9066 79.8394 31.6496C78.4321 26.3925 79.1561 20.9112 81.8688 16.215C83.2404 13.8389 85.0454 11.7993 87.2227 10.1473C89.3285 8.55131 91.6996 7.38873 94.2592 6.69528C96.0337 6.22617 97.8438 5.98143 99.6488 5.98143ZM99.6488 5.21658C97.7724 5.21658 95.9062 5.46643 94.0655 5.96613C91.4089 6.69018 88.9512 7.89353 86.7689 9.54559C84.5049 11.2588 82.6387 13.3749 81.211 15.8377C75.388 25.9132 78.8451 38.8493 88.9257 44.6723C92.1177 46.5181 95.7124 47.4767 99.3735 47.4767C99.6998 47.4767 100.026 47.4665 100.358 47.4512C101.439 47.4002 102.509 47.2625 103.565 47.0535L102.356 38.1915C101.418 38.421 100.454 38.5331 99.4908 38.5331C97.4002 38.5331 95.3045 37.9927 93.4128 36.9015C87.6204 33.5515 85.6318 26.1121 88.9767 20.3197C91.2254 16.4343 95.3096 14.257 99.5061 14.257C101.566 14.257 103.652 14.7822 105.559 15.8836L110.836 18.9328L108.638 22.7366L126.474 22.7876L117.521 7.35815L115.384 11.0549L110.107 8.00571C107.644 6.5831 104.972 5.69078 102.158 5.35425C101.326 5.26757 100.485 5.21658 99.6488 5.21658Z" fill="#00146F"/>
<path d="M136.392 5.99672C139.63 5.99672 142.868 6.80745 145.743 8.33713C145.958 8.44931 146.167 8.56659 146.376 8.68896L147.054 9.11727C156.201 14.9148 159.143 26.7597 153.754 36.0856C150.2 42.2401 143.556 46.0592 136.417 46.0592C132.889 46.0592 129.386 45.1159 126.301 43.3313L120.743 40.1189L120.08 39.7365L119.698 40.3994L118.28 42.852L111.331 30.7674L125.271 30.7572L123.854 33.2047L123.471 33.8676L124.134 34.25L129.692 37.4624C131.742 38.6453 134.072 39.2725 136.422 39.2725C141.144 39.2725 145.534 36.7485 147.88 32.6897C149.654 29.6151 150.113 26.0356 149.175 22.6091C148.237 19.1928 146.024 16.3323 142.939 14.5477C140.986 13.4157 138.737 12.8191 136.438 12.8191C134.296 12.8191 132.144 13.3341 130.197 14.3182C128.407 15.2615 126.857 16.5974 125.659 18.2189L122.059 12.0135C125.817 8.18416 131.013 5.99672 136.392 5.99672ZM136.392 5.23187C130.681 5.23187 125.098 7.59778 121.1 11.9013L125.608 19.667C126.836 17.6223 128.565 16.0417 130.549 14.9964C132.374 14.0735 134.398 13.584 136.433 13.584C138.533 13.584 140.639 14.1041 142.551 15.2105C148.553 18.6778 150.684 26.311 147.217 32.3073C144.907 36.3049 140.726 38.5076 136.422 38.5076C134.266 38.5076 132.078 37.957 130.074 36.7995L124.516 33.5872L126.597 29.9873L110.005 29.9975L118.275 44.3765L120.356 40.7767L125.914 43.989C129.233 45.9062 132.853 46.8189 136.412 46.8189C143.607 46.8189 150.577 43.1018 154.412 36.463C160 26.7953 156.905 14.4559 147.462 8.46461C147.467 8.46461 147.477 8.4595 147.482 8.4595C147.033 8.17396 146.575 7.90882 146.1 7.65388C143.005 6.01711 139.676 5.23187 136.392 5.23187Z" fill="#C80050"/>
<path d="M116.093 24.664L122.9 24.6844C122.824 25.9183 122.926 27.1574 123.196 28.3811L116.287 28.3862C116.108 27.1472 116.042 25.903 116.093 24.664ZM115.374 23.894C115.236 25.6583 115.328 27.4225 115.639 29.146L124.185 29.1409C123.685 27.4531 123.522 25.6736 123.741 23.9195L115.374 23.894Z" fill="#C80050"/>
</svg>
