<svg width="210" height="23" viewBox="0 0 210 23" fill="none" xmlns="http://www.w3.org/2000/svg">
<path d="M10.566 20.8431L8.0064 15.9757H7.90617H4.5936V20.8431H0V3.25098H7.90617C10.2311 3.25098 12.0353 3.79126 13.3139 4.86938C14.5924 5.94749 15.2329 7.46564 15.2329 9.42385C15.2329 10.7464 14.9665 11.8881 14.4311 12.8489C13.8957 13.8121 13.1183 14.5602 12.0964 15.0956L15.761 20.8431H10.566ZM4.5936 12.311H7.93062C8.86694 12.311 9.59057 12.0764 10.1015 11.6094C10.6125 11.1425 10.8667 10.4629 10.8667 9.57787C10.8667 8.72467 10.6125 8.06704 10.1015 7.60744C9.59057 7.14783 8.86694 6.91803 7.93062 6.91803H4.5936V12.311Z" fill="#00146F"/>
<path d="M20.6797 3.25098H34.5583V6.91559H25.2733V10.2037H33.6538V13.8414L25.2733 13.8659V17.1785H34.8101V20.8431H20.6822V3.25098H20.6797Z" fill="#00146F"/>
<path d="M89.3197 20.8431L86.7601 15.9757H86.6598H83.3473V20.8431H78.7561V3.25098H86.6598C88.9847 3.25098 90.7889 3.79126 92.0675 4.86938C93.3485 5.94749 93.9866 7.46564 93.9866 9.42385C93.9866 10.7464 93.7177 11.8881 93.1847 12.8489C92.6493 13.8121 91.8719 14.5602 90.85 15.0956L94.5147 20.8431H89.3197ZM83.3473 12.311H86.6843C87.6206 12.311 88.3442 12.0764 88.8552 11.6094C89.3661 11.1425 89.6204 10.4629 89.6204 9.57787C89.6204 8.72467 89.3637 8.06704 88.8552 7.60744C88.3442 7.14783 87.6206 6.91803 86.6843 6.91803H83.3473V12.311Z" fill="#00146F"/>
<path d="M109.997 20.8431L107.437 15.9757H107.337H104.025V20.8431H99.4334V3.25098H107.337C109.662 3.25098 111.466 3.79126 112.745 4.86938C114.026 5.94749 114.664 7.46564 114.664 9.42385C114.664 10.7464 114.395 11.8881 113.862 12.8489C113.327 13.8121 112.549 14.5602 111.527 15.0956L115.192 20.8431H109.997ZM104.025 12.311H107.362C108.298 12.311 109.022 12.0764 109.532 11.6094C110.043 11.1425 110.298 10.4629 110.298 9.57787C110.298 8.72467 110.041 8.06704 109.532 7.60744C109.022 7.14783 108.298 6.91803 107.362 6.91803H104.025V12.311Z" fill="#00146F"/>
<path d="M120.111 3.25048H133.989V6.91509H124.704V10.2032H133.085V13.8409L124.704 13.8654V17.178H134.241V20.8426H120.113V3.25048H120.111ZM131.88 2.18704H128.667H127.186H125.68H122.467L125.203 -0.000976562H129.144L131.88 2.18704Z" fill="#00146F"/>
<path d="M151.579 3.25098H155.845V20.8431H151.831L143.851 10.3284V20.8431H139.561V3.25098H143.602L151.608 13.8414L151.579 3.25098Z" fill="#00146F"/>
<path d="M172.484 7.50708C171.696 7.07926 170.919 6.86657 170.149 6.86657C169.261 6.86657 168.455 7.08904 167.726 7.53153C166.998 7.97402 166.426 8.5852 166.008 9.36261C165.59 10.14 165.379 11.0055 165.379 11.9613C165.379 12.9172 165.587 13.7802 166.008 14.5576C166.426 15.335 166.998 15.9462 167.726 16.3887C168.455 16.8312 169.261 17.0537 170.149 17.0537C170.868 17.0537 171.621 16.8703 172.408 16.5011C173.193 16.1344 173.897 15.6308 174.515 14.9952L177.202 17.88C176.248 18.8847 175.114 19.6817 173.801 20.2758C172.488 20.8698 171.188 21.1681 169.9 21.1681C168.159 21.1681 166.587 20.7671 165.181 19.9628C163.776 19.1585 162.673 18.0633 161.869 16.6747C161.067 15.2861 160.663 13.7313 160.663 12.0078C160.663 10.3014 161.074 8.76122 161.893 7.38974C162.712 6.01826 163.839 4.94014 165.269 4.15295C166.699 3.36576 168.301 2.97461 170.076 2.97461C171.381 2.97461 172.669 3.24597 173.941 3.79114C175.212 4.33386 176.29 5.0746 177.177 6.01093L174.518 9.22326C173.948 8.50696 173.271 7.93246 172.484 7.50708Z" fill="#00146F"/>
<path d="M181.668 3.25098H186.259V20.8431H181.668V3.25098Z" fill="#00146F"/>
<path d="M205.106 20.8431L203.9 17.731H196.297L195.068 20.8431H190.349L197.904 3.25098H202.622L210 20.8431H205.106ZM197.679 14.2179H202.549L200.141 7.94481L197.679 14.2179Z" fill="#00146F"/>
<path fill-rule="evenodd" clip-rule="evenodd" d="M49.075 17.993C47.6473 18.3401 46.1096 18.1397 44.787 17.3745C42.0098 15.7683 41.0564 12.2015 42.6601 9.42431C44.2663 6.64468 47.8331 5.69125 50.6103 7.29742L53.1405 8.75936L52.0869 10.5831L60.6384 10.6076L56.3455 3.20988L55.3212 4.98229L52.7909 3.52035C51.6101 2.83828 50.3291 2.41046 48.9796 2.24911C47.6791 2.09265 46.3736 2.19044 45.0975 2.53759C43.8238 2.88473 42.6454 3.46168 41.5991 4.25377C40.5136 5.07519 39.6189 6.08974 38.9344 7.27053C36.1425 12.1013 37.8 18.3035 42.6332 21.0953C44.3005 22.0585 46.1951 22.5206 48.1142 22.4301C48.6325 22.4057 49.1459 22.3397 49.6519 22.2395L49.075 17.993Z" fill="#00146F"/>
<path fill-rule="evenodd" clip-rule="evenodd" d="M70.7008 3.74266C70.7032 3.74266 70.7081 3.74021 70.7106 3.74021C70.4954 3.60331 70.2754 3.47619 70.0481 3.35395C65.9825 1.19039 61.0784 2.13649 58.0617 5.3855L60.2228 9.10879C60.812 8.12846 61.6407 7.3706 62.5917 6.86944C64.369 5.97223 66.5423 5.92822 68.3465 6.97211C71.224 8.63451 72.2458 12.2942 70.5834 15.1692C68.921 18.0442 65.2418 18.9854 62.3644 17.323L59.6996 15.7828L60.6971 14.0569L52.742 14.0618L56.7073 20.9558L57.7047 19.2299L60.3695 20.77C65.1807 23.5497 71.2851 21.919 74.0329 17.1616C76.7123 12.5289 75.2308 6.61274 70.7008 3.74266Z" fill="#C80050"/>
<path fill-rule="evenodd" clip-rule="evenodd" d="M59.328 11.148L55.3163 11.1357C55.2503 11.9816 55.2943 12.8275 55.4434 13.6538L59.5407 13.6514C59.2987 12.8422 59.2229 11.9889 59.328 11.148Z" fill="#C80050"/>
</svg>
