<svg width="139" height="30" viewBox="0 0 139 30" fill="none" xmlns="http://www.w3.org/2000/svg">
<path d="M10.0131 0.0235901L20.3167 29.7802H10.1544L0 0.0235901H10.0131Z" fill="#E76A29"/>
<path d="M36.2591 0.0471649H44.7329V29.9921H36.2591V0.0471649Z" fill="#002666"/>
<path d="M81.9266 0.0471649V29.9921H74.9528L61.7355 14.034V29.9921H53.4344V0.0471649H60.4082L73.6256 16.0052V0.0471649H81.9266Z" fill="#002666"/>
<path d="M90.4789 0.0471649H104.639C114.565 0.0471649 121.366 5.81937 121.366 15.0236C121.366 24.2277 114.565 30 104.639 30H90.4789V0.0471649ZM104.293 23.2382C109.382 23.2382 112.806 20.1989 112.806 15.0236C112.806 9.84817 109.382 6.80893 104.293 6.80893H98.945V23.2382H104.293Z" fill="#002666"/>
<path d="M129.911 0.0471649H138.385V29.9921H129.911V0.0471649Z" fill="#002666"/>
<path d="M30.424 0L20.3089 29.8665H10.1465L15.5105 14.1518L18.9188 4.01312C19.7198 1.6414 21.9424 0.0471664 24.4476 0.0471664L30.424 0Z" fill="#002666"/>
</svg>
