<svg xmlns="http://www.w3.org/2000/svg" xmlns:xlink="http://www.w3.org/1999/xlink" width="307" height="46" viewBox="0 0 307 46"><defs><clipPath id="b"><rect width="307" height="46"/></clipPath></defs><g id="a" clip-path="url(#b)"><g transform="translate(-125 -124)"><path d="M1368.359,186.4c-1.817,1.817-3.728,3.692-7.793,4.032a8.1,8.1,0,0,1-7.454-3.918l20.621-4.038v-.067a14.19,14.19,0,1,0-2.19,7.575Zm-14.017-9.994a6.868,6.868,0,0,1,5.213-2.1,7.206,7.206,0,0,1,4.469,1.4,6.576,6.576,0,0,1,2.02,2.5l-13.644,2.9A7.57,7.57,0,0,1,1354.342,176.406Z" transform="translate(-945.961 -32.065)" fill="#fff"/><path d="M284.289,186.4c-1.817,1.817-3.728,3.692-7.793,4.032a8.1,8.1,0,0,1-7.454-3.918l20.621-4.038v-.067a14.19,14.19,0,1,0-2.19,7.575Zm-14.02-9.994a6.869,6.869,0,0,1,5.213-2.1,7.206,7.206,0,0,1,4.469,1.4,6.576,6.576,0,0,1,2.02,2.5l-13.644,2.9A7.582,7.582,0,0,1,270.27,176.406Z" transform="translate(-103.899 -32.065)" fill="#fff"/><path d="M761.53,168.44a14.14,14.14,0,1,0,14.14,14.14A14.141,14.141,0,0,0,761.53,168.44Zm0,21.795a7.655,7.655,0,1,1,7.655-7.655A7.654,7.654,0,0,1,761.53,190.235Z" transform="translate(-481.49 -32.236)" fill="#fff"/><path d="M142.589,170.98a14.036,14.036,0,0,0-5.28.949,10.006,10.006,0,0,0-3.355,2.2v-2.853H127.52v26.635h6.726V184.444a7.785,7.785,0,0,1,1.857-5.594,6.749,6.749,0,0,1,5.074-1.922,5.658,5.658,0,0,1,4.34,1.625,7.026,7.026,0,0,1,1.52,4.916v14.437h6.726V182.689c0-3.835-1.031-6.78-3.067-8.749A11.235,11.235,0,0,0,142.589,170.98Z" transform="translate(0 -34.208)" fill="#fff"/><path d="M628.689,136.772a14.1,14.1,0,0,0-5.056.873,10.424,10.424,0,0,0-3.286,1.994v-12.7H613.62V163.7h6.726V150.235a7.785,7.785,0,0,1,1.857-5.594,6.749,6.749,0,0,1,5.074-1.922,5.658,5.658,0,0,1,4.34,1.625,7.026,7.026,0,0,1,1.52,4.916V163.7h6.726V148.48c0-3.835-1.031-6.778-3.067-8.749A11.231,11.231,0,0,0,628.689,136.772Z" transform="translate(-377.583)" fill="#fff"/><path d="M924.6,186.427a9,9,0,0,1-1.228,5.262,4.43,4.43,0,0,1-3.855,1.621,4.6,4.6,0,0,1-3.931-1.652,8.623,8.623,0,0,1-1.3-5.231V172.282h-6.726v14.145a8.612,8.612,0,0,1-1.3,5.231,4.606,4.606,0,0,1-3.931,1.65,4.429,4.429,0,0,1-3.853-1.621,8.988,8.988,0,0,1-1.228-5.262V172.28H890.53v14.68c0,3.864,1.02,6.912,3.032,9.055s4.954,3.241,8.727,3.241a12.354,12.354,0,0,0,5.273-1.029,8.742,8.742,0,0,0,3.34-2.77c1.828,2.52,4.724,3.8,8.617,3.8,3.773,0,6.717-1.089,8.751-3.239s3.056-5.193,3.056-9.055V172.28H924.6v14.147Z" transform="translate(-592.675 -35.218)" fill="#fff"/><path d="M1172.711,173.92a10.933,10.933,0,0,0-8.014-2.94,13.844,13.844,0,0,0-5.731,1.172,11.237,11.237,0,0,0-3.974,2.938,8.751,8.751,0,0,0-3.467-2.982,12.138,12.138,0,0,0-5.324-1.127,12.744,12.744,0,0,0-4.992.951,9.94,9.94,0,0,0-3.2,2.143v-2.8h-6.436v26.635h6.726V184.395a8.029,8.029,0,0,1,1.741-5.577,6.091,6.091,0,0,1,4.7-1.891,5.162,5.162,0,0,1,4.09,1.618,7.344,7.344,0,0,1,1.429,4.922v14.437h6.726V184.392a7.966,7.966,0,0,1,1.766-5.55,6.055,6.055,0,0,1,4.679-1.915,5.162,5.162,0,0,1,4.09,1.618,7.344,7.344,0,0,1,1.429,4.922v14.437h6.726V182.689C1175.678,178.825,1174.68,175.873,1172.711,173.92Z" transform="translate(-779.905 -34.208)" fill="#fff"/><path d="M1088.934,265.847a3.427,3.427,0,1,1-3.427-3.427A3.427,3.427,0,0,1,1088.934,265.847Z" transform="translate(-741.463 -105.235)" fill="#fff"/><path d="M412.016,166.158v-9.32H419.6v-6.224h-7.586v-6.2H405.37v23.065c0,6.662,3.893,10.329,10.961,10.329h3.9v-6.224H417.28C413.838,171.581,412.016,169.705,412.016,166.158Z" transform="translate(-215.823 -13.57)" fill="#fff"/><path d="M500.208,180.233c-3.228-.54-6.014-1.009-6.014-2.681,0-1.438,1.755-2.893,5.105-2.893,3.248,0,5.264,1.351,5.264,3.527v.741h6.646v-.741c0-5.548-4.764-9.276-11.856-9.276s-11.856,3.663-11.856,9.117c0,6.019,6.139,7.088,11.073,7.947,3.5.609,6.521,1.136,6.521,3.168,0,1.853-2.565,2.683-5.105,2.683-3.768,0-6.108-1.451-6.108-3.791v-.795h-6.7v.846c0,5.762,4.882,9.485,12.437,9.485,6.059,0,12.173-2.77,12.173-8.959C511.788,182.173,505.367,181.1,500.208,180.233Z" transform="translate(-279.369 -32.601)" fill="#fff"/></g></g></svg>