<svg width="139" height="30" viewBox="0 0 139 30" fill="none" xmlns="http://www.w3.org/2000/svg">
<path d="M36.2325 0.0488281H44.6968V29.9999H36.2325V0.0488281Z" fill="white"/>
<path d="M81.8579 0.0488281V29.9999H74.889L61.681 14.0395V29.9999H53.3893V0.0488281H60.3582L73.5662 16.0093V0.0488281H81.8579Z" fill="white"/>
<path d="M90.3972 0.0488281H104.547C114.464 0.0488281 121.261 5.82446 121.261 15.0244C121.261 24.2243 114.464 29.9999 104.547 29.9999H90.3972V0.0488281ZM104.201 23.2394C109.287 23.2394 112.708 20.1999 112.708 15.0244C112.708 9.84881 109.287 6.80935 104.201 6.80935H98.8583V23.2394H104.201Z" fill="white"/>
<path d="M129.797 0.0488281H138.261V29.9999H129.797V0.0488281Z" fill="white"/>
<path d="M30.4007 0L20.2975 29.8728H10.1455L15.505 14.157L18.9096 4.01783C19.7111 1.64692 21.9298 0.0521796 24.4287 0.0521796L30.4007 0Z" fill="white"/>
<path d="M14.899 14.157L10.0021 0H0L9.86205 28.9271L14.899 14.157Z" fill="white"/>
</svg>
