<svg width="500" height="188" viewBox="0 0 500 188" fill="none" xmlns="http://www.w3.org/2000/svg">
<path d="M93.75 1.56667C118.375 1.56667 141.523 11.1782 158.938 28.6387C176.352 46.0992 185.938 69.3093 185.938 94C185.938 118.691 176.352 141.901 158.938 159.361C141.523 176.822 118.375 186.433 93.75 186.433C69.125 186.433 45.9766 176.822 28.5625 159.361C11.1484 141.901 1.5625 118.691 1.5625 94C1.5625 69.3093 11.1484 46.0992 28.5625 28.6387C45.9766 11.1782 69.125 1.56667 93.75 1.56667ZM93.75 0C41.9766 0 0 42.0885 0 94C0 145.911 41.9766 188 93.75 188C145.523 188 187.5 145.911 187.5 94C187.5 42.0885 145.523 0 93.75 0Z" fill="#00146F"/>
<path d="M156.25 1.56667C180.875 1.56667 204.023 11.1782 221.438 28.6387C238.852 46.0992 248.438 69.3093 248.438 94C248.438 118.691 238.852 141.901 221.438 159.361C204.023 176.822 180.875 186.433 156.25 186.433C131.625 186.433 108.477 176.822 91.0625 159.361C73.6484 141.901 64.0625 118.691 64.0625 94C64.0625 69.3093 73.6484 46.0992 91.0625 28.6387C108.477 11.1782 131.625 1.56667 156.25 1.56667ZM156.25 0C104.477 0 62.5 42.0885 62.5 94C62.5 145.911 104.477 188 156.25 188C208.023 188 250 145.911 250 94C250 42.0885 208.023 0 156.25 0Z" fill="#00146F"/>
<path d="M218.75 1.56667C243.375 1.56667 266.523 11.1782 283.938 28.6387C301.352 46.0992 310.938 69.3093 310.938 94C310.938 118.691 301.352 141.901 283.938 159.361C266.523 176.822 243.375 186.433 218.75 186.433C194.125 186.433 170.977 176.822 153.562 159.361C136.148 141.901 126.562 118.691 126.562 94C126.562 69.3093 136.148 46.0992 153.562 28.6387C170.977 11.1782 194.125 1.56667 218.75 1.56667ZM218.75 0C166.977 0 125 42.0885 125 94C125 145.911 166.977 188 218.75 188C270.523 188 312.5 145.911 312.5 94C312.5 42.0885 270.523 0 218.75 0Z" fill="#00146F"/>
<path d="M281.25 1.56667C305.875 1.56667 329.023 11.1782 346.438 28.6387C363.852 46.0992 373.438 69.3093 373.438 94C373.438 118.691 363.852 141.901 346.438 159.361C329.023 176.822 305.875 186.433 281.25 186.433C256.625 186.433 233.477 176.822 216.062 159.361C198.648 141.901 189.062 118.691 189.062 94C189.062 69.3093 198.648 46.0992 216.062 28.6387C233.477 11.1782 256.625 1.56667 281.25 1.56667ZM281.25 0C229.477 0 187.5 42.0885 187.5 94C187.5 145.911 229.477 188 281.25 188C333.023 188 375 145.911 375 94C375 42.0885 333.023 0 281.25 0Z" fill="#00146F"/>
<path d="M343.75 1.56667C368.375 1.56667 391.523 11.1782 408.938 28.6387C426.352 46.0992 435.938 69.3093 435.938 94C435.938 118.691 426.352 141.901 408.938 159.361C391.523 176.822 368.375 186.433 343.75 186.433C319.125 186.433 295.977 176.822 278.562 159.361C261.148 141.901 251.562 118.691 251.562 94C251.562 69.3093 261.148 46.0992 278.562 28.6387C295.977 11.1782 319.125 1.56667 343.75 1.56667ZM343.75 0C291.977 0 250 42.0885 250 94C250 145.911 291.977 188 343.75 188C395.523 188 437.5 145.911 437.5 94C437.5 42.0885 395.523 0 343.75 0Z" fill="#00146F"/>
<path d="M406.25 1.56667C430.875 1.56667 454.023 11.1782 471.438 28.6387C488.852 46.0992 498.438 69.3093 498.438 94C498.438 118.691 488.852 141.901 471.438 159.361C454.023 176.822 430.875 186.433 406.25 186.433C381.625 186.433 358.477 176.822 341.062 159.361C323.648 141.901 314.062 118.691 314.062 94C314.062 69.3093 323.648 46.0992 341.062 28.6387C358.477 11.1782 381.625 1.56667 406.25 1.56667ZM406.25 0C354.477 0 312.5 42.0885 312.5 94C312.5 145.911 354.477 188 406.25 188C458.023 188 500 145.911 500 94C500 42.0885 458.023 0 406.25 0Z" fill="#00146F"/>
</svg>
