<svg width="555" height="280" viewBox="0 0 555 280" fill="none" xmlns="http://www.w3.org/2000/svg">
<g id="Explos&#195;&#163;o">
<path id="Coin" d="M277 280C354.32 280 417 217.32 417 140C417 62.6801 354.32 0 277 0C199.68 0 137 62.6801 137 140C137 217.32 199.68 280 277 280Z" fill="url(#paint0_linear)"/>
<path id="Vector" d="M154 30.6714C114.799 52.4201 88.3043 93.8963 88.3043 141.5C88.3043 189.104 114.799 230.58 154 252.329L154 30.6714Z" fill="url(#paint1_linear)"/>
<path id="Vector_2" d="M94 40.0271C62.9025 63.2046 42.7881 100.024 42.7881 141.49C42.7881 182.955 62.9025 219.774 94 242.952L94 40.0271Z" fill="url(#paint2_linear)"/>
<path id="Vector_3" d="M48 52.0286C24.9525 74.9838 10.7044 106.596 10.7044 141.5C10.7044 176.404 24.9525 208.016 48 230.972L48 52.0286Z" fill="url(#paint3_linear)"/>
<path id="Vector_4" d="M15.8857 80.3074C5.76962 98.4578 -0.000276877 119.307 -0.000277846 141.49C-0.000278816 163.672 5.76962 184.532 15.8857 202.672L15.8857 80.3074Z" fill="url(#paint4_linear)"/>
<path id="Vector_5" d="M401 252.329C440.201 230.58 466.696 189.104 466.696 141.5C466.696 93.8963 440.201 52.4203 401 30.6715L401 252.329Z" fill="url(#paint5_linear)"/>
<path id="Vector_6" d="M461 242.973C492.098 219.796 512.212 182.976 512.212 141.511C512.212 100.045 492.098 63.2258 461 40.0483L461 242.973Z" fill="url(#paint6_linear)"/>
<path id="Vector_7" d="M507 230.972C530.047 208.016 544.296 176.404 544.296 141.5C544.296 106.596 530.047 74.9839 507 52.0287L507 230.972Z" fill="url(#paint7_linear)"/>
<path id="Vector_8" d="M539.114 202.693C549.23 184.542 555 163.693 555 141.511C555 119.328 549.23 98.4683 539.114 80.3285L539.114 202.693Z" fill="url(#paint8_linear)"/>
</g>
<defs>
<linearGradient id="paint0_linear" x1="277" y1="0" x2="277" y2="280" gradientUnits="userSpaceOnUse">
<stop stop-color="#F5C913"/>
<stop offset="1" stop-color="#F5A413"/>
</linearGradient>
<linearGradient id="paint1_linear" x1="154" y1="141.5" x2="88.3043" y2="141.5" gradientUnits="userSpaceOnUse">
<stop stop-color="#F5C913"/>
<stop offset="1" stop-color="#F5A413"/>
</linearGradient>
<linearGradient id="paint2_linear" x1="94" y1="141.49" x2="42.7881" y2="141.49" gradientUnits="userSpaceOnUse">
<stop stop-color="#F5C913"/>
<stop offset="1" stop-color="#F5A413"/>
</linearGradient>
<linearGradient id="paint3_linear" x1="48" y1="141.5" x2="10.7044" y2="141.5" gradientUnits="userSpaceOnUse">
<stop stop-color="#F5C913"/>
<stop offset="1" stop-color="#F5A413"/>
</linearGradient>
<linearGradient id="paint4_linear" x1="15.8857" y1="141.49" x2="-0.000277333" y2="141.49" gradientUnits="userSpaceOnUse">
<stop stop-color="#F5C913"/>
<stop offset="1" stop-color="#F5A413"/>
</linearGradient>
<linearGradient id="paint5_linear" x1="401" y1="141.5" x2="466.696" y2="141.5" gradientUnits="userSpaceOnUse">
<stop stop-color="#F5C913"/>
<stop offset="1" stop-color="#F5A413"/>
</linearGradient>
<linearGradient id="paint6_linear" x1="461" y1="141.511" x2="512.212" y2="141.511" gradientUnits="userSpaceOnUse">
<stop stop-color="#F5C913"/>
<stop offset="1" stop-color="#F5A413"/>
</linearGradient>
<linearGradient id="paint7_linear" x1="507" y1="141.5" x2="544.296" y2="141.5" gradientUnits="userSpaceOnUse">
<stop stop-color="#F5C913"/>
<stop offset="1" stop-color="#F5A413"/>
</linearGradient>
<linearGradient id="paint8_linear" x1="539.114" y1="141.511" x2="555" y2="141.511" gradientUnits="userSpaceOnUse">
<stop stop-color="#F5C913"/>
<stop offset="1" stop-color="#F5A413"/>
</linearGradient>
</defs>
</svg>
